<svg fill="none" height="480" viewBox="0 0 796 480" width="796" xmlns="http://www.w3.org/2000/svg" xmlns:xlink="http://www.w3.org/1999/xlink"><linearGradient id="a" gradientUnits="userSpaceOnUse" x1="423.396" x2="422.442" y1="-261.28" y2="347.505"><stop offset="0" stop-color="#823f02"/><stop offset="1" stop-color="#401f00" stop-opacity="0"/></linearGradient><linearGradient id="b"><stop offset="0"/><stop offset="1" stop-color="#503000" stop-opacity="0"/></linearGradient><linearGradient id="c" gradientUnits="userSpaceOnUse" x1="-311.7" x2="-365.132" xlink:href="#b" y1="-265.125" y2="256.165"/><linearGradient id="d" gradientUnits="userSpaceOnUse" x1="-149.574" x2="-207.643" xlink:href="#b" y1="-236.419" y2="264.955"/><linearGradient id="e" gradientUnits="userSpaceOnUse" x1="20.9804" x2="-37.0883" xlink:href="#b" y1="-226.127" y2="275.247"/><linearGradient id="f" gradientUnits="userSpaceOnUse" x1="472.306" x2="395.951" xlink:href="#b" y1="-29.1684" y2="486.871"/><linearGradient id="g" gradientUnits="userSpaceOnUse" x1="520.151" x2="426.347" xlink:href="#b" y1="-26.8433" y2="476.567"/><clipPath id="h"><path d="m0 0h796v480h-796z"/></clipPath><g clip-path="url(#h)"><path d="m0 0h796v480h-796z" fill="#000"/><path d="m0 0h796v480h-796z" fill="url(#a)"/><path d="m-1419.4 380.425h2215.4c0-46.848 0-405.1028-.001-455.5841-171.25.0001-114.006 254.8331-325.05 254.8331-276.841 0-178.968-254.833-405.4739-254.833-92.3084 0-330.0781 370.87-582.8811 370.87-313.252 0-483.664-317.7091-558.484-317.7091-196.92 0-247.78 274.9621-343.51 402.4231z" fill="url(#c)"/><path d="m-1095.15 386.254h1891.15c0-39.992 0-345.8111-.001-388.90391-132.407 0-145.526 278.54491-325.681 278.54491-361.157 0-337.818-329.0805-416.6157-329.0805-78.7978 0-163.0733 367.1245-378.8743 367.1245-267.405 0-412.878-271.2087-476.744-271.2087-168.099 0-211.514 234.7177-293.234 343.5237z" fill="url(#d)"/><path d="m-924.592 396.546h1891.147c0-39.992 0-345.8112-.001-388.90392-132.407 0-145.526 278.54492-325.682 278.54492-361.157 0-337.817-329.0806-416.615-329.0806s-163.0729 367.1246-378.875 367.1246c-267.404 0-412.877-271.2087-476.743-271.2087-168.1 0-211.514 234.7177-293.231 343.5237z" fill="url(#e)"/><path d="m-295.862 617.081 1536.342-81.178c-71.43-19.212-149.09-175.839-267.341-146.674-173.476 42.787-213.715-228.226-304.413-228.226-70.055 0-112.608 179.227-237.221 179.227-215.667 0-335.8188-146.512-411.2673-146.512-83.9488 0-275.2907 373.973-316.0997 423.363z" fill="url(#f)"/><path d="m1122.67 611.504c-212.461 0-290.957-347.595-393.382-347.595-76.141 0-34.804 148.332-321.766 148.332-229.569 0-446.7934-167.492-489.8902-251.238v450.501h1205.0382c0-22.957 0 0 0 0z" fill="url(#g)"/></g></svg>